<?xml version="1.0" standalone="no"?>
<!DOCTYPE svg PUBLIC "-//W3C//DTD SVG 20010904//EN"
 "http://www.w3.org/TR/2001/REC-SVG-20010904/DTD/svg10.dtd">
<svg version="1.0" xmlns="http://www.w3.org/2000/svg"
 width="747.000000pt" height="746.000000pt" viewBox="0 0 747.000000 746.000000"
 preserveAspectRatio="xMidYMid meet">

<g transform="translate(0.000000,746.000000) scale(0.100000,-0.100000)"
fill="#553285" stroke="none">
<path d="M3145 5475 c-65 -64 2 -155 114 -155 74 0 58 -34 -23 -49 -26 -5 -52
-13 -57 -18 -16 -16 17 -35 60 -37 34 0 44 5 83 49 40 43 47 48 62 36 15 -12
14 -16 -5 -47 -22 -37 -21 -38 36 -47 17 -3 40 -8 53 -12 19 -6 22 -4 22 16 0
13 -9 38 -20 54 -31 47 -27 58 23 53 85 -10 167 -86 167 -155 0 -59 -7 -65
-50 -43 -21 10 -40 26 -44 35 -10 26 -7 60 6 73 9 9 7 12 -9 12 -23 0 -33 -18
-33 -57 0 -27 60 -93 85 -93 23 0 28 -20 9 -41 -34 -38 -100 -17 -124 41 -13
32 -27 39 -36 16 -10 -26 24 -74 61 -86 42 -14 45 -27 8 -36 -66 -17 -153 50
-153 117 0 37 -35 40 -51 5 -9 -20 -7 -31 12 -65 58 -103 227 -108 303 -8 26
34 29 35 97 35 70 0 71 0 107 -40 44 -49 85 -68 147 -68 61 0 107 21 139 63
33 44 34 100 1 105 -17 2 -23 -6 -32 -40 -17 -64 -61 -102 -120 -102 -50 -1
-70 18 -31 29 37 12 68 46 68 77 0 38 -18 35 -35 -7 -24 -57 -86 -74 -126 -34
l-21 21 49 28 c59 34 83 76 65 115 -7 14 -18 25 -27 25 -12 0 -13 -4 -3 -25 8
-19 8 -31 0 -50 -12 -27 -70 -67 -84 -59 -4 3 -8 27 -8 54 0 41 5 55 32 86 36
40 98 73 139 74 39 0 40 -8 13 -62 -30 -58 -22 -79 21 -60 14 7 39 12 55 12
34 0 40 22 14 51 -18 20 -12 49 10 49 8 0 31 -20 51 -45 43 -52 63 -60 110
-45 46 15 45 37 -2 45 -55 9 -94 26 -90 39 2 6 26 13 53 16 92 11 144 57 130
115 -15 59 -80 86 -110 44 -21 -31 -10 -52 25 -45 32 6 43 -5 35 -38 -7 -29
-65 -56 -121 -56 -55 0 -57 13 -15 72 31 43 39 78 18 78 -25 0 -43 -20 -68
-72 -18 -38 -32 -54 -47 -56 -29 -4 -30 17 -3 48 36 42 16 78 -23 42 -12 -11
-34 -24 -50 -27 -40 -10 -43 -24 -12 -49 33 -27 27 -32 -46 -46 -88 -17 -138
-79 -148 -185 -5 -51 -9 -60 -26 -60 -19 0 -20 6 -19 118 0 102 -1 117 -16
117 -15 0 -16 -13 -12 -111 5 -111 -1 -135 -29 -124 -10 4 -15 22 -16 60 -2
62 -32 126 -75 158 -15 11 -49 22 -78 25 -59 5 -77 27 -42 50 32 21 28 30 -23
52 -25 11 -45 24 -45 30 0 5 -7 10 -15 10 -9 0 -15 -9 -15 -24 0 -13 7 -29 15
-36 19 -16 20 -50 1 -50 -16 0 -56 46 -56 65 0 21 -41 65 -61 65 -32 0 -25
-19 34 -103 10 -15 16 -31 12 -37 -9 -15 -80 -12 -120 4 -62 26 -71 88 -12 83
37 -2 47 21 22 47 -23 23 -52 20 -80 -9z"/>
<path d="M2104 5426 c-8 -21 14 -56 42 -66 33 -13 74 -13 74 0 0 6 -9 10 -20
10 -13 0 -28 13 -41 35 -22 36 -46 45 -55 21z"/>
<path d="M2790 5433 c-54 -20 -82 -82 -82 -178 0 -173 104 -280 284 -293 72
-4 78 -6 57 -17 -45 -23 -105 -27 -168 -11 -102 26 -135 61 -249 262 -74 130
-169 211 -180 153 -2 -10 11 -22 37 -33 41 -19 76 -51 106 -99 l18 -28 -41 21
c-63 33 -138 36 -192 8 -45 -24 -64 -48 -36 -48 8 0 31 10 52 22 89 52 201 6
272 -113 31 -52 103 -115 166 -146 57 -28 64 -43 18 -43 -36 0 -135 59 -236
141 -109 88 -124 95 -198 90 -33 -2 -18 -21 16 -21 25 0 38 -6 50 -25 9 -14
38 -36 64 -48 26 -13 48 -30 50 -41 3 -16 0 -18 -30 -12 -72 15 -83 13 -83
-14 0 -34 53 -60 122 -60 43 0 52 3 55 19 3 17 7 17 73 -10 58 -24 81 -28 130
-25 138 10 264 47 317 95 20 17 34 45 44 80 16 65 7 92 -21 61 -24 -26 -70
-26 -88 1 -16 22 -31 11 -21 -15 8 -22 59 -47 78 -40 24 9 20 -21 -8 -53 -24
-27 -24 -28 -132 -24 -148 4 -164 20 -133 131 22 73 19 91 -10 83 -15 -4 -21
-1 -21 11 0 9 5 16 11 16 7 0 9 10 5 24 -3 14 -2 28 4 31 17 10 11 25 -9 25
-48 0 -90 -113 -69 -186 5 -21 19 -51 30 -66 23 -33 11 -36 -25 -8 -65 51 -86
165 -42 235 15 25 24 55 25 82 0 33 4 43 20 48 11 4 18 11 15 16 -7 10 -21 11
-45 2z"/>
<path d="M4657 5433 c-4 -3 2 -13 14 -21 16 -11 20 -21 15 -47 -5 -25 0 -40
21 -71 28 -40 36 -98 20 -156 -8 -31 -59 -93 -91 -110 -20 -11 -20 -11 -3 13
35 48 49 92 45 140 -6 64 -37 123 -66 127 -22 3 -23 1 -16 -35 4 -21 11 -44
17 -51 13 -16 -8 -33 -30 -25 -18 7 -17 -33 2 -87 19 -55 19 -73 -3 -100 -17
-21 -28 -23 -123 -25 -99 -2 -105 -1 -131 23 -28 26 -38 65 -15 60 43 -8 95
33 77 61 -6 11 -10 9 -19 -8 -14 -25 -58 -28 -87 -6 -37 28 -43 12 -23 -58 18
-67 60 -103 152 -131 183 -56 253 -58 354 -11 66 30 65 30 61 8 -3 -15 6 -18
52 -21 71 -3 125 22 125 58 0 27 -17 30 -84 15 -29 -7 -33 -6 -29 11 2 11 24
30 52 44 27 14 54 35 59 48 8 16 19 22 44 22 18 0 33 5 33 10 0 16 -78 12
-113 -6 -18 -10 -54 -36 -82 -59 -131 -112 -237 -168 -282 -151 -13 6 -3 14
43 37 84 42 126 79 175 154 80 124 190 162 284 98 24 -16 58 -17 53 -1 -3 7
-24 23 -49 36 -53 29 -123 27 -187 -5 -23 -11 -42 -17 -42 -13 0 14 92 110
105 110 7 0 23 9 36 19 19 15 21 22 12 32 -18 19 -68 -7 -107 -55 -19 -23 -60
-88 -92 -145 -106 -187 -171 -237 -305 -235 -36 1 -76 7 -90 15 -22 13 -18 14
57 20 98 9 159 35 212 93 54 58 76 128 70 221 -5 81 -30 134 -73 153 -30 14
-39 15 -48 5z"/>
<path d="M5351 5405 c-13 -22 -28 -35 -41 -35 -11 0 -20 -4 -20 -10 0 -31 104
5 115 40 16 49 -25 53 -54 5z"/>
<path d="M2234 5416 c-22 -17 -12 -33 26 -38 32 -4 40 -50 14 -79 -22 -25 -11
-35 24 -23 26 9 27 12 24 69 -5 79 -39 107 -88 71z"/>
<path d="M5183 5423 c-7 -2 -13 -20 -13 -39 0 -19 -5 -43 -12 -54 -10 -15 -9
-23 6 -39 22 -24 56 -28 56 -6 0 8 -4 15 -9 15 -15 0 -21 29 -11 55 6 15 17
25 29 25 28 0 37 21 16 37 -19 13 -40 16 -62 6z"/>
<path d="M2365 5404 c-24 -25 -16 -68 14 -72 25 -4 51 19 51 44 0 14 -27 44
-40 44 -5 0 -16 -7 -25 -16z"/>
<path d="M5070 5406 c-28 -35 11 -93 48 -70 24 16 27 42 6 65 -20 23 -37 24
-54 5z"/>
<path d="M2155 5316 c-57 -26 -117 -88 -109 -111 10 -26 30 -17 69 30 20 25
60 59 88 75 43 25 48 30 27 30 -14 0 -48 -11 -75 -24z"/>
<path d="M5269 5321 c18 -10 59 -44 91 -75 54 -54 80 -64 80 -32 0 38 -128
127 -181 126 -22 -1 -21 -3 10 -19z"/>
<path d="M2204 5274 c-24 -36 -9 -78 29 -82 31 -4 34 4 11 36 -9 13 -14 34
-11 48 6 31 -8 31 -29 -2z"/>
<path d="M5255 5280 c4 -12 0 -31 -9 -45 -21 -32 -20 -45 2 -45 27 0 42 20 42
55 0 30 -15 55 -33 55 -4 0 -5 -9 -2 -20z"/>
<path d="M2164 5116 c-17 -7 -76 -47 -130 -88 -143 -106 -176 -116 -208 -65
-8 12 -5 24 12 47 16 22 19 30 9 30 -23 0 -67 -40 -67 -61 0 -25 -25 -35 -45
-19 -23 19 -31 2 -14 -28 8 -15 25 -28 37 -30 28 -4 28 -19 1 -27 -30 -10 -5
-25 41 -25 51 0 108 30 180 94 62 55 63 56 74 34 7 -14 10 -51 8 -94 l-4 -71
-49 -20 c-63 -27 -71 -54 -33 -111 33 -51 47 -54 39 -8 -6 29 -4 35 15 41 12
4 26 18 32 31 11 23 38 34 38 15 0 -4 23 -18 51 -29 54 -23 60 -42 18 -53 -22
-6 -22 -7 -5 -14 15 -6 25 0 47 26 42 50 38 89 -13 115 -30 16 -30 34 1 34 10
0 26 9 37 21 19 21 18 21 -1 37 -11 10 -19 25 -17 35 4 19 -14 47 -30 47 -5 0
-4 -9 2 -19 13 -25 3 -51 -21 -51 -10 0 -23 -9 -29 -20 -25 -47 -50 -8 -50 77
0 52 26 92 73 114 41 18 120 25 151 13 22 -9 20 -34 -3 -34 -21 0 -33 -22 -25
-44 8 -21 40 -26 64 -9 30 21 24 70 -12 96 -35 26 -130 33 -174 13z"/>
<path d="M5163 5111 c-43 -20 -59 -47 -48 -82 14 -43 85 -42 85 2 0 12 -10 23
-27 30 -27 10 -27 11 -9 25 28 20 103 17 153 -5 59 -27 79 -62 76 -135 -3 -70
-18 -92 -40 -58 -9 12 -24 22 -35 22 -24 0 -35 27 -19 51 15 25 -1 24 -23 0
-10 -11 -15 -25 -11 -31 4 -6 0 -19 -9 -29 -22 -24 -10 -51 25 -58 43 -8 43
-18 4 -42 -29 -17 -35 -26 -35 -53 1 -42 50 -95 77 -83 17 8 17 8 -2 13 -11 2
-24 8 -29 13 -12 11 12 39 34 39 9 0 29 9 43 20 30 24 47 26 47 5 0 -8 14 -24
30 -37 26 -19 30 -27 24 -52 -6 -27 -5 -29 10 -17 29 24 58 80 51 100 -3 11
-29 31 -58 45 l-52 24 0 86 c1 47 4 88 8 92 4 4 39 -21 78 -56 74 -66 120 -89
181 -90 39 0 60 16 34 26 -20 7 -21 24 -3 24 19 0 47 33 47 54 0 13 -4 15 -19
6 -30 -16 -41 -12 -41 13 0 26 -23 51 -57 61 -27 9 -29 1 -7 -21 19 -19 15
-62 -7 -76 -27 -17 -64 0 -168 78 -56 41 -118 84 -138 95 -47 25 -115 25 -170
1z"/>
<path d="M3727 5013 c-4 -3 -7 -17 -7 -30 0 -16 -6 -23 -19 -23 -11 0 -23 5
-26 10 -10 17 -44 11 -55 -9 -15 -29 -13 -101 3 -101 7 0 26 14 42 30 16 17
37 30 47 30 22 0 24 -29 3 -56 -34 -45 -4 -111 42 -93 33 12 40 55 14 89 -11
16 -21 36 -21 45 0 26 44 17 75 -15 16 -16 32 -30 37 -30 4 0 8 25 8 55 0 61
-16 78 -51 57 -27 -17 -49 -15 -49 6 0 28 -28 51 -43 35z"/>
<path d="M3201 4946 c-33 -53 -28 -72 25 -99 47 -24 47 -24 50 -81 1 -31 -1
-68 -5 -82 -6 -25 -6 -25 -64 25 -83 72 -136 97 -185 84 -23 -5 -24 -7 -8 -19
16 -11 15 -13 -11 -26 -16 -8 -29 -23 -31 -36 -3 -21 -1 -22 17 -13 26 15 31
14 31 -4 0 -9 11 -27 25 -40 28 -29 57 -35 32 -7 -48 53 16 96 81 55 15 -9 54
-38 88 -64 34 -26 79 -56 100 -68 l39 -20 -155 0 c-185 -1 -189 1 -335 114
-137 106 -238 151 -260 115 -12 -20 17 -40 56 -40 39 0 119 -31 138 -53 7 -9
-3 -11 -38 -9 -82 6 -201 -62 -201 -114 0 -16 4 -16 -700 -14 -401 1 -409 2
-410 38 0 22 40 54 58 46 9 -4 32 -9 51 -12 43 -6 61 16 61 74 0 33 -5 46 -22
58 -31 22 -52 20 -86 -9 -39 -32 -65 -32 -92 2 -21 28 -23 64 -5 106 5 13 2
17 -12 17 -25 0 -60 -37 -68 -72 -10 -38 35 -82 93 -91 58 -10 54 -29 -6 -26
-53 3 -72 -4 -72 -27 0 -24 26 -27 67 -5 53 27 72 13 33 -24 -16 -16 -30 -39
-30 -52 l0 -23 -165 0 -165 0 0 -25 0 -25 2626 0 2625 0 -3 23 c-3 22 -6 22
-165 25 -157 2 -163 3 -163 23 0 11 -13 34 -30 51 -16 16 -30 31 -30 34 0 10
41 3 68 -13 33 -19 65 -11 60 14 -2 14 -17 19 -68 23 -66 5 -70 12 -15 24 17
4 45 15 63 26 41 25 44 74 7 114 -29 32 -72 37 -55 7 17 -33 12 -89 -10 -111
-27 -27 -52 -25 -88 5 -17 14 -39 25 -50 25 -45 0 -74 -67 -50 -117 15 -33 47
-40 90 -22 29 12 33 11 54 -15 19 -22 22 -31 14 -47 -10 -18 -26 -19 -553 -19
l-542 0 -20 37 c-30 57 -93 88 -177 88 -38 0 -68 1 -68 2 0 0 21 13 46 28 26
15 72 30 106 35 67 10 73 13 65 35 -17 43 -120 0 -262 -110 -147 -114 -150
-115 -340 -114 -114 0 -153 3 -136 10 14 5 68 41 121 79 130 94 157 102 181
58 9 -16 6 -24 -12 -44 -16 -17 -18 -24 -8 -24 24 0 59 30 59 50 0 25 17 35
36 19 8 -6 17 -9 20 -6 12 12 -7 44 -33 56 -24 11 -25 13 -7 25 17 13 17 14
-5 21 -40 13 -106 -14 -173 -71 -35 -30 -66 -54 -70 -54 -10 0 -16 48 -14 105
2 46 5 51 41 70 57 30 64 47 38 92 -27 48 -45 55 -37 15 5 -25 2 -31 -16 -37
-11 -4 -26 -18 -31 -32 -9 -23 -11 -24 -27 -10 -9 8 -34 22 -54 30 -44 18 -47
29 -15 45 15 7 17 11 6 11 -25 1 -59 -42 -59 -77 0 -25 6 -35 31 -48 32 -16
30 -29 -5 -36 -29 -5 -45 -36 -25 -51 9 -7 14 -18 11 -25 -4 -14 15 -42 30
-42 6 0 5 7 -2 15 -17 20 -5 45 20 45 11 0 23 7 26 15 4 8 12 15 19 15 25 0
34 -90 14 -134 -19 -42 -116 -76 -173 -62 -31 8 -34 32 -6 39 23 6 26 29 5 47
-20 17 -54 3 -61 -26 -9 -35 1 -53 38 -69 31 -13 24 -14 -96 -15 l-128 0 14
23 c8 12 40 36 71 53 73 38 86 51 64 60 -24 9 -21 34 3 34 11 0 23 7 26 15 4
8 15 15 26 15 11 0 18 5 16 12 -24 70 -185 -12 -208 -106 -6 -22 -15 -50 -19
-61 -8 -18 -9 -17 -16 10 -22 96 -50 135 -119 166 -48 22 -77 24 -94 7 -18
-18 -15 -28 8 -28 11 0 23 -7 26 -15 4 -8 15 -15 25 -15 23 0 25 -26 2 -34
-22 -9 -9 -22 64 -60 31 -17 63 -41 71 -53 l14 -23 -133 0 c-119 1 -131 2
-104 14 40 17 58 41 50 66 -13 41 -75 49 -75 9 0 -10 10 -24 22 -30 21 -11 21
-12 3 -25 -46 -34 -161 0 -190 56 -12 22 -14 43 -9 76 7 49 21 65 38 42 6 -9
20 -17 31 -19 12 -3 21 -14 23 -27 4 -27 22 -19 22 10 0 11 8 27 18 34 16 13
16 15 -7 34 -13 11 -29 20 -37 20 -23 0 -16 20 11 30 36 14 42 52 14 89 -13
18 -31 31 -43 30 -20 0 -20 -1 2 -11 33 -17 27 -36 -17 -48 -21 -5 -42 -17
-45 -26 -9 -24 -80 54 -77 84 3 31 -4 28 -28 -12z m-326 -312 c17 -8 55 -30
85 -49 l54 -35 -203 0 -203 0 28 33 c15 17 36 38 47 46 45 32 129 34 192 5z
m1891 11 c28 -5 57 -29 93 -77 13 -17 2 -18 -185 -18 -150 1 -194 3 -179 12
11 6 43 26 70 44 48 32 122 55 155 49 8 -2 29 -6 46 -10z"/>
<path d="M1991 4909 c-21 -25 -59 -53 -99 -72 -72 -35 -97 -61 -72 -77 31 -20
54 -8 119 58 63 65 111 132 94 132 -4 0 -23 -19 -42 -41z"/>
<path d="M5450 4945 c0 -19 90 -130 131 -162 46 -36 76 -42 86 -17 10 26 -10
47 -66 69 -29 12 -73 42 -101 70 -28 27 -50 45 -50 40z"/>
<path d="M1706 4774 c-19 -49 17 -109 52 -88 21 13 28 70 11 90 -15 19 -55 18
-63 -2z"/>
<path d="M5716 4774 c-28 -28 -11 -94 25 -94 18 0 49 40 49 63 0 44 -43 62
-74 31z"/>
<path d="M1120 4451 c0 -13 5238 -13 5245 0 4 5 -996 9 -2619 9 -1637 0 -2626
-4 -2626 -9z"/>
<path d="M3644 4151 c-65 -40 -74 -62 -74 -184 l0 -110 38 -36 c22 -20 72 -49
113 -66 111 -44 119 -55 119 -163 0 -111 -15 -137 -79 -137 -57 0 -74 21 -79
95 l-4 60 -59 0 -59 0 0 -59 c0 -68 25 -113 80 -145 27 -17 52 -21 115 -21 69
0 86 4 126 27 60 35 79 80 79 184 0 127 -27 164 -161 219 -111 46 -119 57
-119 159 0 73 3 85 23 104 32 30 81 29 112 -3 19 -18 25 -35 25 -70 l0 -45 55
0 55 0 0 106 0 105 -32 -5 c-18 -3 -38 -12 -44 -21 -11 -14 -15 -14 -45 4 -45
28 -141 29 -185 2z"/>
<path d="M2433 3063 c725 -2 1909 -2 2630 0 722 1 129 2 -1318 2 -1447 0
-2037 -1 -1312 -2z"/>
<path d="M1120 2990 c0 -19 7 -20 165 -20 l165 0 0 -26 c0 -16 12 -36 32 -54
38 -35 30 -50 -15 -31 -18 7 -45 16 -60 18 -26 5 -28 3 -25 -18 3 -22 8 -24
56 -25 29 -1 55 -4 58 -7 3 -3 -20 -12 -50 -21 -43 -13 -59 -23 -71 -45 -19
-38 -5 -81 36 -105 38 -23 44 -17 28 27 -24 68 34 139 85 102 11 -8 31 -22 43
-31 18 -13 26 -13 45 -3 32 17 38 28 38 75 0 27 -6 46 -18 57 -22 20 -35 21
-78 5 -29 -10 -36 -9 -54 7 -23 20 -26 45 -8 63 9 9 146 12 555 12 463 0 543
-2 543 -14 0 -25 53 -78 98 -98 25 -12 66 -19 98 -19 30 0 52 -4 50 -8 -11
-17 -97 -51 -147 -58 -63 -10 -77 -36 -21 -41 46 -5 103 25 219 115 152 117
168 123 348 123 144 -1 149 -1 120 -17 -16 -9 -64 -42 -105 -73 -92 -70 -135
-93 -160 -85 -28 9 -35 43 -13 67 18 20 17 20 -7 17 -15 -3 -30 -15 -40 -34
-8 -16 -16 -32 -18 -35 -2 -2 -12 1 -22 8 -17 10 -20 10 -20 -5 0 -25 12 -39
38 -48 22 -6 22 -8 5 -20 -17 -13 -16 -14 8 -20 45 -11 101 12 172 71 37 31
71 54 74 51 6 -7 8 -51 5 -117 -3 -42 -5 -46 -45 -65 -50 -24 -58 -51 -26 -95
27 -36 38 -38 32 -7 -3 17 2 28 21 41 14 9 26 23 26 31 0 8 7 15 15 15 8 0 15
-4 15 -9 0 -5 17 -15 38 -22 50 -16 58 -31 24 -46 -26 -12 -26 -12 -4 -13 41
0 77 62 54 96 -4 6 -17 16 -29 23 -31 16 -29 29 3 33 37 4 55 35 31 52 -9 8
-15 20 -12 28 3 8 -1 21 -10 28 -13 11 -15 9 -13 -11 2 -17 -5 -27 -24 -37
-16 -7 -28 -17 -28 -23 0 -19 -28 -8 -34 14 -25 95 17 159 120 181 53 12 114
-24 63 -37 -15 -4 -20 -12 -17 -29 4 -30 38 -35 62 -9 23 26 13 57 -25 76 -16
9 -29 18 -29 20 0 3 54 5 121 5 119 0 120 0 117 -22 -2 -16 -18 -31 -54 -48
-28 -14 -61 -33 -75 -43 -22 -16 -23 -19 -6 -28 23 -13 22 -29 -3 -29 -11 0
-20 -5 -20 -10 0 -6 -11 -15 -25 -20 -14 -5 -25 -14 -25 -20 0 -14 45 -23 78
-15 71 17 124 73 140 150 10 50 23 48 36 -6 7 -25 22 -59 34 -76 26 -37 95
-73 140 -73 32 0 56 20 33 28 -8 3 -22 13 -32 23 -11 11 -26 19 -34 19 -20 0
-19 17 3 29 16 9 16 11 -3 26 -11 9 -43 27 -71 40 -46 21 -64 39 -64 66 0 5
54 9 121 9 l122 0 -34 -23 c-39 -26 -48 -57 -23 -81 20 -20 43 -18 58 7 11 17
3 28 -29 41 -6 2 -5 9 3 17 17 19 100 16 140 -5 17 -9 38 -26 46 -38 18 -25
21 -115 5 -138 -8 -13 -12 -12 -26 8 -8 12 -24 22 -33 22 -22 0 -30 19 -18 42
6 14 5 16 -7 12 -14 -6 -16 -10 -19 -40 -1 -6 -7 -19 -15 -28 -12 -14 -11 -19
4 -36 10 -11 26 -20 37 -20 27 0 22 -13 -12 -32 -38 -21 -41 -64 -7 -96 25
-23 47 -29 47 -12 0 6 -6 10 -14 10 -36 0 -22 21 30 46 46 22 58 24 65 13 5
-8 9 -17 9 -21 0 -4 9 -10 21 -13 17 -6 20 -13 15 -36 -8 -40 8 -36 34 8 29
49 20 75 -32 99 l-42 19 0 72 c-1 39 2 75 6 79 4 4 37 -18 73 -49 71 -61 126
-84 172 -72 25 6 26 8 11 19 -14 10 -13 14 13 28 18 11 29 25 29 40 0 17 -3
19 -12 10 -19 -19 -48 -15 -48 7 0 23 -25 51 -46 51 -12 0 -12 -3 1 -23 13
-21 13 -25 -1 -45 -8 -12 -23 -22 -34 -22 -10 0 -58 29 -107 65 -48 36 -106
75 -128 87 l-40 23 148 3 c178 3 190 -1 335 -112 152 -116 230 -149 262 -111
14 17 8 21 -57 28 -41 5 -126 41 -143 61 -6 8 9 10 47 8 35 -3 71 2 99 13 44
17 104 74 104 100 0 13 72 15 539 15 477 0 541 -2 555 -16 20 -19 20 -24 0
-52 -17 -24 -44 -28 -73 -11 -69 44 -125 -89 -58 -136 30 -21 39 -19 82 15 46
36 49 37 80 5 18 -17 25 -35 25 -64 0 -22 -4 -43 -10 -46 -15 -10 -12 -25 6
-25 26 0 74 56 74 86 0 39 -25 62 -88 80 -63 19 -61 28 7 25 32 -1 52 3 60 13
27 33 -25 50 -63 21 -21 -16 -56 -20 -56 -7 0 4 13 20 30 35 17 17 30 39 30
53 l0 24 165 0 c158 0 165 1 165 20 0 20 -7 20 -2625 20 -2618 0 -2625 0
-2625 -20z m1875 -28 c-131 -114 -263 -131 -342 -44 -18 20 -33 40 -33 44 0 4
86 8 192 8 106 0 188 -4 183 -8z m1875 0 c0 -4 -15 -24 -33 -44 -79 -86 -212
-69 -341 44 -6 4 76 8 182 8 106 0 192 -4 192 -8z"/>
<path d="M1974 2830 c-37 -55 -28 -81 35 -108 l49 -22 4 -67 c4 -57 -1 -93
-18 -112 -2 -2 -31 21 -66 51 -35 31 -79 63 -98 73 -57 29 -169 22 -116 -7 17
-10 17 -11 -5 -22 -26 -13 -51 -55 -42 -70 4 -6 8 -6 11 2 2 7 15 12 28 12 19
0 24 -5 24 -24 0 -27 33 -56 64 -56 18 0 18 2 -4 25 -20 21 -22 28 -12 50 23
50 80 29 230 -87 117 -89 178 -105 259 -69 52 24 68 50 51 86 -11 25 -48 42
-66 31 -5 -3 -12 -15 -15 -26 -4 -16 1 -24 19 -32 29 -14 30 -24 5 -38 -47
-25 -141 -2 -188 45 -26 26 -33 41 -33 73 0 90 24 130 50 82 6 -11 19 -20 29
-20 24 0 34 -26 20 -51 -10 -19 -9 -20 11 -9 14 8 20 19 18 35 -2 15 4 29 16
38 16 11 17 17 7 36 -7 12 -25 24 -42 28 -37 7 -36 13 4 38 44 28 48 67 11
106 -27 28 -64 39 -64 19 0 -5 9 -10 19 -10 44 0 31 -30 -19 -45 -14 -4 -36
-17 -49 -29 -20 -17 -25 -18 -29 -6 -3 8 -20 29 -38 45 -24 23 -31 34 -24 45
30 47 -5 38 -36 -10z"/>
<path d="M5474 2844 c6 -25 2 -32 -24 -47 -16 -10 -30 -24 -30 -32 0 -22 -22
-29 -35 -11 -7 9 -30 22 -51 30 -43 14 -60 46 -25 46 12 0 21 5 21 10 0 24
-39 7 -63 -28 -33 -47 -27 -74 22 -103 l36 -21 -34 -12 c-47 -15 -60 -39 -37
-65 10 -11 15 -24 12 -29 -7 -11 21 -52 37 -52 8 0 8 3 -1 12 -7 7 -12 22 -12
34 0 16 8 23 30 28 18 3 30 12 30 21 0 10 7 15 17 13 24 -4 37 -81 23 -130 -6
-21 -23 -46 -40 -58 -39 -28 -131 -47 -166 -35 -36 13 -41 31 -9 39 27 7 33
34 13 54 -19 19 -46 14 -64 -13 -33 -50 8 -97 95 -111 60 -10 119 16 240 107
58 43 117 83 132 88 54 19 91 -38 52 -81 -15 -17 -15 -18 5 -18 28 0 62 34 62
60 0 23 29 27 48 8 9 -9 12 -7 12 10 0 26 -33 62 -57 63 -14 0 -13 3 5 11 12
6 22 14 22 18 0 13 -43 20 -83 13 -40 -6 -88 -36 -171 -107 -26 -21 -50 -36
-54 -32 -4 4 -7 44 -7 88 l0 81 48 26 c66 35 71 48 43 101 -28 53 -51 66 -42
24z"/>
<path d="M1710 2811 c-27 -52 1 -103 45 -83 19 9 25 19 25 45 0 54 -47 79 -70
38z"/>
<path d="M5710 2811 c-17 -32 -12 -60 14 -76 34 -22 66 -5 66 34 0 51 -58 81
-80 42z"/>
<path d="M1816 2751 c-12 -20 8 -42 62 -67 32 -14 81 -49 110 -77 60 -59 66
-56 20 11 -51 75 -127 142 -159 142 -15 0 -30 -4 -33 -9z"/>
<path d="M5560 2714 c-45 -42 -110 -130 -110 -149 0 -4 24 17 53 47 33 35 65
58 84 62 73 16 115 86 53 86 -23 0 -44 -12 -80 -46z"/>
<path d="M3710 2731 c-15 -28 -12 -67 5 -81 8 -7 15 -23 15 -36 0 -36 -34 -30
-67 11 -15 19 -34 35 -40 35 -16 0 -17 -67 -3 -104 11 -30 26 -33 51 -10 22
20 49 12 49 -14 0 -11 7 -25 15 -32 13 -10 17 -7 30 24 17 39 26 44 45 21 17
-20 47 -19 54 3 9 30 11 101 3 109 -5 4 -23 -9 -42 -30 -19 -20 -41 -37 -50
-37 -26 0 -28 27 -6 59 34 47 21 101 -24 101 -14 0 -29 -8 -35 -19z"/>
<path d="M2760 2616 c-36 -13 -73 -27 -82 -31 -13 -5 -18 -3 -18 8 0 22 -48
30 -105 17 -60 -13 -75 -25 -75 -57 0 -23 3 -25 38 -19 70 12 77 11 77 -4 0
-8 -24 -28 -52 -43 -29 -16 -58 -37 -63 -48 -7 -12 -21 -19 -40 -19 -37 0 -48
-18 -17 -25 41 -11 100 12 156 60 66 56 164 127 209 149 19 10 49 16 70 14
l37 -3 -55 -29 c-84 -44 -128 -83 -179 -160 -76 -116 -164 -150 -265 -102 -64
30 -66 31 -66 12 0 -8 21 -24 46 -36 59 -29 156 -24 204 10 l32 23 -15 -29
c-19 -37 -72 -87 -114 -108 -40 -20 -44 -46 -6 -46 39 0 99 69 173 199 76 133
118 184 173 213 53 27 148 34 207 15 l45 -14 -70 -7 c-146 -15 -232 -67 -273
-164 -60 -143 -17 -313 80 -311 33 0 33 0 11 16 -17 11 -23 26 -23 52 0 20
-11 53 -25 76 -46 74 -26 179 45 239 35 29 61 35 38 9 -50 -58 -62 -147 -29
-220 11 -23 29 -44 41 -48 27 -9 37 0 20 20 -7 8 -9 22 -6 31 4 9 1 23 -5 30
-14 17 -3 35 19 32 14 -2 16 4 14 30 -2 19 -10 52 -17 73 -18 49 -6 85 30 99
15 6 68 10 120 10 92 0 94 0 119 -31 33 -39 33 -49 -2 -49 -35 0 -72 -26 -72
-51 0 -25 11 -24 33 2 20 23 58 20 88 -7 43 -39 18 90 -26 136 -31 32 -125 71
-220 90 -107 22 -136 22 -205 -4z"/>
<path d="M4555 2625 c-22 -8 -52 -15 -67 -15 -33 0 -133 -37 -171 -63 -34 -23
-56 -64 -64 -122 -6 -47 0 -54 26 -31 31 26 59 28 81 6 14 -14 26 -18 31 -13
17 17 -24 55 -65 62 l-37 6 23 35 24 35 105 3 c95 2 108 0 132 -18 31 -24 34
-51 12 -103 -19 -47 -20 -101 -2 -94 8 3 20 1 27 -3 11 -7 10 -11 -2 -24 -9
-9 -14 -24 -11 -35 3 -10 0 -22 -6 -25 -18 -11 -13 -26 8 -26 43 0 88 99 78
173 -3 21 -17 56 -31 78 -29 43 -27 47 10 23 35 -23 73 -92 80 -145 5 -37 1
-53 -26 -102 -18 -33 -28 -66 -25 -76 7 -24 -4 -51 -21 -51 -8 0 -14 -4 -14
-10 0 -22 57 -10 82 18 37 39 51 93 46 177 -11 161 -109 253 -292 270 -55 6
-66 9 -52 17 36 20 140 22 196 3 73 -24 120 -76 205 -224 71 -125 137 -201
174 -201 46 0 34 28 -25 58 -38 20 -112 97 -102 107 2 3 22 -4 43 -15 67 -34
186 -22 223 23 22 27 -2 27 -58 0 -43 -20 -62 -24 -98 -19 -66 9 -128 52 -163
113 -37 64 -115 135 -180 165 -60 28 -63 42 -6 36 49 -6 113 -45 242 -147 85
-67 129 -88 171 -79 9 1 19 9 22 17 3 10 -2 12 -22 7 -21 -5 -32 -1 -54 23
-15 16 -46 38 -69 50 -46 23 -58 51 -20 50 12 0 31 -4 42 -8 48 -19 74 19 37
52 -37 34 -162 42 -162 11 0 -18 -3 -18 -74 10 -82 33 -150 40 -201 21z"/>
<path d="M3392 2530 c-34 -21 -72 -74 -72 -102 0 -21 28 -50 43 -45 7 2 15 22
20 45 5 25 20 52 39 71 27 27 39 31 85 31 29 0 53 -4 53 -8 0 -5 -16 -16 -35
-25 -39 -19 -70 -60 -61 -82 9 -25 23 -17 43 22 23 48 62 64 101 42 36 -20 40
-45 9 -53 -43 -10 -87 -60 -87 -98 0 -32 14 -58 32 -58 4 0 5 19 2 43 -6 40
-4 46 26 70 39 34 58 34 66 2 21 -84 -72 -185 -171 -185 -40 0 -43 7 -15 52
11 18 20 41 20 50 0 22 -19 33 -33 19 -6 -6 -25 -11 -43 -11 -42 0 -59 -20
-39 -46 8 -10 15 -27 15 -36 0 -33 -37 -19 -74 27 -31 38 -43 45 -72 45 -49 0
-79 -17 -63 -36 6 -8 22 -14 36 -14 13 0 40 -7 60 -15 47 -20 34 -34 -38 -44
-88 -12 -119 -38 -119 -98 0 -65 87 -102 112 -48 15 33 -1 52 -30 36 -17 -9
-23 -8 -30 5 -24 43 18 78 106 90 69 9 75 -8 28 -71 -37 -48 -44 -69 -26 -80
13 -8 70 48 70 68 0 20 39 67 56 67 19 0 18 -34 -1 -50 -16 -13 -20 -55 -6
-64 4 -3 16 3 26 14 10 11 33 24 51 30 41 14 42 24 7 55 l-28 23 28 11 c16 6
44 11 62 11 24 0 45 9 70 31 48 43 58 63 64 139 5 59 8 65 30 68 l24 4 -5
-121 c-4 -109 -2 -121 13 -121 16 0 17 11 12 120 l-6 120 27 0 c25 0 26 -2 26
-53 0 -62 31 -131 72 -160 14 -11 50 -23 79 -28 70 -11 82 -25 46 -51 -32 -24
-24 -43 24 -53 16 -4 34 -16 40 -26 8 -16 13 -18 25 -8 19 16 18 33 -6 54 -22
20 -26 40 -10 50 16 10 41 -15 61 -62 17 -40 63 -82 76 -70 10 11 -6 53 -37
92 -34 43 -37 53 -13 62 24 9 123 -14 144 -33 35 -31 15 -84 -22 -61 -29 18
-46 -4 -31 -38 10 -22 18 -26 50 -23 31 3 40 8 55 39 13 28 15 43 7 63 -12 32
-65 66 -105 66 -43 0 -75 11 -75 24 0 13 55 36 86 36 10 0 26 5 34 10 23 16
-15 40 -61 40 -31 0 -42 -6 -73 -45 -37 -44 -59 -55 -71 -35 -3 5 2 24 12 40
16 27 16 32 3 40 -8 5 -29 10 -46 10 -16 0 -35 5 -42 12 -9 9 -15 9 -24 0 -9
-9 -6 -23 11 -61 36 -77 13 -90 -77 -45 -73 36 -102 77 -102 142 0 58 7 62 56
32 37 -23 54 -71 33 -96 -6 -8 -9 -17 -6 -20 12 -12 35 5 41 31 10 39 -21 86
-71 110 -47 22 -48 30 -11 58 34 26 75 13 106 -34 28 -41 42 -48 42 -21 0 36
-12 52 -51 73 -22 11 -39 24 -39 29 0 13 71 13 103 1 32 -12 66 -61 71 -101 4
-39 13 -47 34 -34 43 27 11 118 -52 148 -44 21 -138 21 -183 0 -19 -9 -46 -32
-60 -50 -25 -33 -27 -34 -97 -34 -70 0 -73 1 -107 36 -49 51 -79 64 -151 64
-45 0 -72 -6 -96 -20z"/>
<path d="M2052 2317 c-29 -34 80 -123 173 -143 l30 -6 -35 22 c-19 12 -62 49
-96 81 -50 50 -63 58 -72 46z"/>
<path d="M2206 2308 c-9 -12 -16 -29 -16 -38 0 -18 27 -60 39 -60 5 0 6 11 3
25 -2 14 3 36 12 50 29 44 -9 65 -38 23z"/>
<path d="M5230 2311 c0 -10 7 -24 16 -32 11 -9 14 -22 10 -43 -6 -29 -6 -29
14 -11 27 24 27 80 1 95 -29 15 -41 12 -41 -9z"/>
<path d="M5371 2280 c-23 -27 -62 -62 -87 -76 -25 -15 -43 -29 -40 -31 3 -3
28 3 57 13 65 24 141 89 137 117 -5 35 -23 29 -67 -23z"/>
<path d="M2260 2231 c0 -5 7 -11 15 -15 18 -7 20 -57 3 -74 -7 -7 -22 -12 -35
-12 -13 0 -23 -4 -23 -8 0 -15 24 -32 46 -32 42 0 54 10 54 49 0 20 4 41 10
47 15 15 -17 54 -46 54 -13 0 -24 -4 -24 -9z"/>
<path d="M5160 2220 c-6 -11 -7 -26 -3 -33 4 -6 10 -30 13 -52 5 -37 8 -40 38
-43 34 -3 66 13 56 29 -3 5 -16 9 -30 9 -38 0 -51 45 -24 82 l21 28 -30 0
c-20 0 -34 -7 -41 -20z"/>
<path d="M2365 2164 c-19 -20 -16 -43 8 -58 20 -13 50 2 55 26 3 16 -23 48
-38 48 -5 0 -16 -7 -25 -16z"/>
<path d="M5070 2165 c-7 -9 -10 -25 -6 -41 5 -20 12 -25 34 -22 19 2 28 9 30
26 6 43 -33 68 -58 37z"/>
<path d="M2126 2139 c-30 -24 -32 -62 -3 -67 12 -3 22 7 32 32 10 24 22 36 35
36 10 0 22 5 25 10 12 19 -62 10 -89 -11z"/>
<path d="M5295 2150 c3 -5 15 -10 25 -10 13 0 25 -12 35 -36 10 -25 20 -35 32
-32 54 10 -1 88 -62 88 -22 0 -34 -4 -30 -10z"/>
</g>
</svg>
